<svg width="24" height="24" viewBox="0 0 24 24" fill="none" xmlns="http://www.w3.org/2000/svg">
<path fill-rule="evenodd" clip-rule="evenodd" d="M8.55562 1.00011L8.44177 1C7.6274 1 6.90044 1.51285 6.62404 2.28234L0.116362 20.4C-0.338092 21.6652 0.595092 23 1.93409 23H9.09194C9.91244 23 10.6435 22.4795 10.9153 21.7018L12 18.598L13.0847 21.7018C13.3565 22.4795 14.0876 23 14.9081 23H22.0659C23.4049 23 24.3381 21.6652 23.8836 20.4L17.376 2.28234C17.0996 1.51285 16.3726 1 15.5582 1H8.57626C8.56937 1 8.56249 1.00004 8.55562 1.00011ZM11.0898 15.9935L7.35932 5.31928L1.73212 20.9856C1.68163 21.1262 1.78531 21.2745 1.93409 21.2745H9.09194C9.1831 21.2745 9.26433 21.2167 9.29453 21.1303L11.0898 15.9935ZM8.57626 2.72549C8.42827 2.72549 8.32465 2.87235 8.37367 3.01262L14.7055 21.1303C14.7357 21.2167 14.8169 21.2745 14.9081 21.2745H22.0659C22.2147 21.2745 22.3184 21.1262 22.2679 20.9856L15.7602 2.86797C15.7295 2.78247 15.6487 2.72549 15.5582 2.72549H8.57626Z" fill="url(#paint0_linear_23823_25919)"/>
<defs>
<linearGradient id="paint0_linear_23823_25919" x1="6.5" y1="1.5" x2="14.5" y2="23" gradientUnits="userSpaceOnUse">
<stop offset="0.197002" stop-color="#9000FF"/>
<stop offset="0.745829" stop-color="#7200CC"/>
<stop offset="1" stop-color="#550097"/>
</linearGradient>
</defs>
</svg>
